<mxfile host="www.draw.io" modified="2020-01-15T09:33:36.735Z" agent="Mozilla/5.0 (Windows NT 10.0; Win64; x64) AppleWebKit/537.36 (KHTML, like Gecko) Chrome/79.0.3945.117 Safari/537.36" etag="Px4ZVhkTfWO0PzGyvhl6" version="12.5.3" type="github">
  <diagram id="prtHgNgQTEPvFCAcTncT" name="Page-1">
    <mxGraphModel dx="2249" dy="713" grid="1" gridSize="10" guides="1" tooltips="1" connect="1" arrows="1" fold="1" page="1" pageScale="1" pageWidth="827" pageHeight="1169" math="0" shadow="0">
      <root>
        <mxCell id="0"/>
        <mxCell id="1" parent="0"/>
        <mxCell id="wKbyVIzsQiCnR4fuRm6c-66" value="" style="rounded=0;whiteSpace=wrap;html=1;" parent="1" vertex="1">
          <mxGeometry x="970" y="670" width="160" height="470" as="geometry"/>
        </mxCell>
        <mxCell id="wKbyVIzsQiCnR4fuRm6c-65" value="" style="rounded=0;whiteSpace=wrap;html=1;" parent="1" vertex="1">
          <mxGeometry x="810" y="670" width="160" height="470" as="geometry"/>
        </mxCell>
        <mxCell id="wKbyVIzsQiCnR4fuRm6c-64" value="" style="rounded=0;whiteSpace=wrap;html=1;" parent="1" vertex="1">
          <mxGeometry x="610" y="670" width="200" height="470" as="geometry"/>
        </mxCell>
        <mxCell id="wKbyVIzsQiCnR4fuRm6c-63" value="" style="rounded=0;whiteSpace=wrap;html=1;" parent="1" vertex="1">
          <mxGeometry x="370" y="670" width="240" height="470" as="geometry"/>
        </mxCell>
        <mxCell id="wKbyVIzsQiCnR4fuRm6c-62" value="" style="rounded=0;whiteSpace=wrap;html=1;" parent="1" vertex="1">
          <mxGeometry x="230" y="670" width="140" height="470" as="geometry"/>
        </mxCell>
        <mxCell id="wKbyVIzsQiCnR4fuRm6c-61" value="" style="rounded=0;whiteSpace=wrap;html=1;" parent="1" vertex="1">
          <mxGeometry x="40" y="670" width="190" height="470" as="geometry"/>
        </mxCell>
        <mxCell id="wKbyVIzsQiCnR4fuRm6c-60" value="" style="rounded=0;whiteSpace=wrap;html=1;" parent="1" vertex="1">
          <mxGeometry x="-80" y="670" width="120" height="470" as="geometry"/>
        </mxCell>
        <mxCell id="wKbyVIzsQiCnR4fuRm6c-18" style="edgeStyle=entityRelationEdgeStyle;rounded=0;orthogonalLoop=1;jettySize=auto;html=1;exitX=1;exitY=0.5;exitDx=0;exitDy=0;endSize=6;entryX=0;entryY=0.75;entryDx=0;entryDy=0;" parent="1" source="wKbyVIzsQiCnR4fuRm6c-2" target="wKbyVIzsQiCnR4fuRm6c-23" edge="1">
          <mxGeometry relative="1" as="geometry">
            <mxPoint x="98" y="788" as="targetPoint"/>
          </mxGeometry>
        </mxCell>
        <mxCell id="wKbyVIzsQiCnR4fuRm6c-49" style="edgeStyle=entityRelationEdgeStyle;rounded=0;comic=0;orthogonalLoop=1;jettySize=auto;html=1;entryX=0;entryY=0.5;entryDx=0;entryDy=0;startArrow=none;startFill=0;sourcePerimeterSpacing=6;endSize=6;targetPerimeterSpacing=6;strokeColor=#000000;" parent="1" source="wKbyVIzsQiCnR4fuRm6c-2" target="wKbyVIzsQiCnR4fuRm6c-48" edge="1">
          <mxGeometry relative="1" as="geometry"/>
        </mxCell>
        <mxCell id="wKbyVIzsQiCnR4fuRm6c-2" value="病人" style="rounded=1;whiteSpace=wrap;html=1;fillColor=#dae8fc;strokeColor=#6c8ebf;" parent="1" vertex="1">
          <mxGeometry x="-60" y="840" width="80" height="30" as="geometry"/>
        </mxCell>
        <mxCell id="wKbyVIzsQiCnR4fuRm6c-11" style="edgeStyle=entityRelationEdgeStyle;rounded=0;orthogonalLoop=1;jettySize=auto;html=1;entryX=0;entryY=0.5;entryDx=0;entryDy=0;" parent="1" source="wKbyVIzsQiCnR4fuRm6c-3" target="wKbyVIzsQiCnR4fuRm6c-41" edge="1">
          <mxGeometry relative="1" as="geometry"/>
        </mxCell>
        <mxCell id="wKbyVIzsQiCnR4fuRm6c-14" style="edgeStyle=entityRelationEdgeStyle;rounded=0;orthogonalLoop=1;jettySize=auto;html=1;entryX=0;entryY=0.5;entryDx=0;entryDy=0;fillColor=#ffe6cc;strokeColor=#d79b00;startArrow=diamond;startFill=0;endArrow=diamond;endFill=0;" parent="1" source="wKbyVIzsQiCnR4fuRm6c-3" target="wKbyVIzsQiCnR4fuRm6c-44" edge="1">
          <mxGeometry relative="1" as="geometry">
            <mxPoint x="440" y="780" as="targetPoint"/>
          </mxGeometry>
        </mxCell>
        <mxCell id="wKbyVIzsQiCnR4fuRm6c-3" value="基层医院" style="rounded=0;whiteSpace=wrap;html=1;fillColor=#dae8fc;strokeColor=#6c8ebf;" parent="1" vertex="1">
          <mxGeometry x="260" y="830" width="80" height="30" as="geometry"/>
        </mxCell>
        <mxCell id="wKbyVIzsQiCnR4fuRm6c-53" style="edgeStyle=entityRelationEdgeStyle;rounded=0;comic=0;orthogonalLoop=1;jettySize=auto;html=1;entryX=0;entryY=0.5;entryDx=0;entryDy=0;startArrow=none;startFill=0;sourcePerimeterSpacing=6;endSize=6;targetPerimeterSpacing=6;strokeColor=#000000;exitX=1;exitY=0.5;exitDx=0;exitDy=0;" parent="1" source="wKbyVIzsQiCnR4fuRm6c-5" target="wKbyVIzsQiCnR4fuRm6c-52" edge="1">
          <mxGeometry relative="1" as="geometry"/>
        </mxCell>
        <mxCell id="wKbyVIzsQiCnR4fuRm6c-5" value="区/市级医院" style="rounded=0;whiteSpace=wrap;html=1;fillColor=#dae8fc;strokeColor=#6c8ebf;" parent="1" vertex="1">
          <mxGeometry x="690" y="900" width="80" height="40" as="geometry"/>
        </mxCell>
        <mxCell id="wKbyVIzsQiCnR4fuRm6c-7" value="省/部级医院" style="rounded=0;whiteSpace=wrap;html=1;fillColor=#dae8fc;strokeColor=#6c8ebf;" parent="1" vertex="1">
          <mxGeometry x="1030" y="990" width="70" height="40" as="geometry"/>
        </mxCell>
        <mxCell id="wKbyVIzsQiCnR4fuRm6c-9" value="专项医疗机构" style="rounded=0;whiteSpace=wrap;html=1;fillColor=#dae8fc;strokeColor=#6c8ebf;" parent="1" vertex="1">
          <mxGeometry x="690" y="835" width="80" height="40" as="geometry"/>
        </mxCell>
        <mxCell id="wKbyVIzsQiCnR4fuRm6c-47" style="edgeStyle=entityRelationEdgeStyle;rounded=0;orthogonalLoop=1;jettySize=auto;html=1;entryX=0;entryY=0.5;entryDx=0;entryDy=0;endSize=6;strokeColor=#d6b656;targetPerimeterSpacing=6;sourcePerimeterSpacing=6;comic=0;startArrow=diamond;startFill=0;fillColor=#fff2cc;endArrow=diamond;endFill=0;" parent="1" target="wKbyVIzsQiCnR4fuRm6c-5" edge="1">
          <mxGeometry relative="1" as="geometry">
            <mxPoint x="550" y="760" as="sourcePoint"/>
          </mxGeometry>
        </mxCell>
        <mxCell id="wKbyVIzsQiCnR4fuRm6c-16" style="edgeStyle=entityRelationEdgeStyle;rounded=0;orthogonalLoop=1;jettySize=auto;html=1;endSize=6;exitX=1;exitY=0.5;exitDx=0;exitDy=0;" parent="1" source="wKbyVIzsQiCnR4fuRm6c-41" target="wKbyVIzsQiCnR4fuRm6c-5" edge="1">
          <mxGeometry relative="1" as="geometry"/>
        </mxCell>
        <mxCell id="wKbyVIzsQiCnR4fuRm6c-15" value="&lt;span style=&quot;white-space: normal&quot;&gt;检验流程&lt;/span&gt;&lt;br style=&quot;white-space: normal&quot;&gt;" style="shape=process;whiteSpace=wrap;html=1;backgroundOutline=1;" parent="1" vertex="1">
          <mxGeometry x="460" y="860" width="90" height="20" as="geometry"/>
        </mxCell>
        <mxCell id="wKbyVIzsQiCnR4fuRm6c-19" style="edgeStyle=entityRelationEdgeStyle;rounded=0;orthogonalLoop=1;jettySize=auto;html=1;entryX=0;entryY=0.5;entryDx=0;entryDy=0;endSize=6;exitX=1;exitY=0.5;exitDx=0;exitDy=0;" parent="1" source="wKbyVIzsQiCnR4fuRm6c-23" target="wKbyVIzsQiCnR4fuRm6c-3" edge="1">
          <mxGeometry relative="1" as="geometry">
            <mxPoint x="190" y="790" as="sourcePoint"/>
          </mxGeometry>
        </mxCell>
        <mxCell id="wKbyVIzsQiCnR4fuRm6c-22" value="预约流程&lt;br&gt;" style="shape=process;whiteSpace=wrap;html=1;backgroundOutline=1;" parent="1" vertex="1">
          <mxGeometry x="100" y="780" width="90" height="20" as="geometry"/>
        </mxCell>
        <mxCell id="wKbyVIzsQiCnR4fuRm6c-23" value="家庭医生" style="shape=process;whiteSpace=wrap;html=1;backgroundOutline=1;" parent="1" vertex="1">
          <mxGeometry x="100" y="800" width="90" height="20" as="geometry"/>
        </mxCell>
        <mxCell id="wKbyVIzsQiCnR4fuRm6c-24" value="诊疗流程" style="shape=process;whiteSpace=wrap;html=1;backgroundOutline=1;" parent="1" vertex="1">
          <mxGeometry x="100" y="820" width="90" height="20" as="geometry"/>
        </mxCell>
        <mxCell id="wKbyVIzsQiCnR4fuRm6c-25" value="建档业务" style="shape=process;whiteSpace=wrap;html=1;backgroundOutline=1;" parent="1" vertex="1">
          <mxGeometry x="460" y="730" width="90" height="20" as="geometry"/>
        </mxCell>
        <mxCell id="wKbyVIzsQiCnR4fuRm6c-29" value="远程会诊" style="shape=process;whiteSpace=wrap;html=1;backgroundOutline=1;" parent="1" vertex="1">
          <mxGeometry x="460" y="790" width="90" height="20" as="geometry"/>
        </mxCell>
        <mxCell id="wKbyVIzsQiCnR4fuRm6c-41" value="转诊流程" style="shape=process;whiteSpace=wrap;html=1;backgroundOutline=1;" parent="1" vertex="1">
          <mxGeometry x="460" y="880" width="90" height="20" as="geometry"/>
        </mxCell>
        <mxCell id="wKbyVIzsQiCnR4fuRm6c-44" value="慢性病防治" style="shape=process;whiteSpace=wrap;html=1;backgroundOutline=1;" parent="1" vertex="1">
          <mxGeometry x="460" y="750" width="90" height="20" as="geometry"/>
        </mxCell>
        <mxCell id="wKbyVIzsQiCnR4fuRm6c-45" value="慢性筛查" style="shape=process;whiteSpace=wrap;html=1;backgroundOutline=1;" parent="1" vertex="1">
          <mxGeometry x="460" y="770" width="90" height="20" as="geometry"/>
        </mxCell>
        <mxCell id="wKbyVIzsQiCnR4fuRm6c-50" style="edgeStyle=entityRelationEdgeStyle;rounded=0;comic=0;orthogonalLoop=1;jettySize=auto;html=1;entryX=0;entryY=0.5;entryDx=0;entryDy=0;startArrow=none;startFill=0;sourcePerimeterSpacing=6;endSize=6;targetPerimeterSpacing=6;strokeColor=#000000;exitX=1;exitY=0.5;exitDx=0;exitDy=0;" parent="1" source="wKbyVIzsQiCnR4fuRm6c-48" target="wKbyVIzsQiCnR4fuRm6c-5" edge="1">
          <mxGeometry relative="1" as="geometry"/>
        </mxCell>
        <mxCell id="wKbyVIzsQiCnR4fuRm6c-48" value="急诊救治" style="shape=process;whiteSpace=wrap;html=1;backgroundOutline=1;fillColor=#d5e8d4;strokeColor=#82b366;" parent="1" vertex="1">
          <mxGeometry x="110" y="1040" width="90" height="20" as="geometry"/>
        </mxCell>
        <mxCell id="wKbyVIzsQiCnR4fuRm6c-51" style="edgeStyle=entityRelationEdgeStyle;rounded=0;orthogonalLoop=1;jettySize=auto;html=1;entryX=0;entryY=0.5;entryDx=0;entryDy=0;endSize=6;strokeColor=#d6b656;targetPerimeterSpacing=6;sourcePerimeterSpacing=6;comic=0;startArrow=diamond;startFill=0;fillColor=#fff2cc;exitX=1;exitY=0.5;exitDx=0;exitDy=0;endArrow=diamond;endFill=0;" parent="1" source="wKbyVIzsQiCnR4fuRm6c-44" target="wKbyVIzsQiCnR4fuRm6c-9" edge="1">
          <mxGeometry relative="1" as="geometry">
            <mxPoint x="560" y="760" as="sourcePoint"/>
            <mxPoint x="705" y="930" as="targetPoint"/>
          </mxGeometry>
        </mxCell>
        <mxCell id="wKbyVIzsQiCnR4fuRm6c-54" style="edgeStyle=entityRelationEdgeStyle;rounded=0;comic=0;orthogonalLoop=1;jettySize=auto;html=1;entryX=0;entryY=0.5;entryDx=0;entryDy=0;startArrow=none;startFill=0;sourcePerimeterSpacing=6;endSize=6;targetPerimeterSpacing=6;strokeColor=#000000;" parent="1" source="wKbyVIzsQiCnR4fuRm6c-52" target="wKbyVIzsQiCnR4fuRm6c-7" edge="1">
          <mxGeometry relative="1" as="geometry"/>
        </mxCell>
        <mxCell id="wKbyVIzsQiCnR4fuRm6c-52" value="转诊流程" style="shape=process;whiteSpace=wrap;html=1;backgroundOutline=1;fillColor=#d5e8d4;strokeColor=#82b366;" parent="1" vertex="1">
          <mxGeometry x="849.9999999999999" y="970" width="90" height="20" as="geometry"/>
        </mxCell>
        <mxCell id="wKbyVIzsQiCnR4fuRm6c-55" value="协同业务" style="rounded=0;whiteSpace=wrap;html=1;fillColor=#d5e8d4;strokeColor=#82b366;" parent="1" vertex="1">
          <mxGeometry x="460" y="710" width="90" height="20" as="geometry"/>
        </mxCell>
        <mxCell id="wKbyVIzsQiCnR4fuRm6c-67" style="edgeStyle=orthogonalEdgeStyle;rounded=0;orthogonalLoop=1;jettySize=auto;html=1;entryX=0;entryY=0.5;entryDx=0;entryDy=0;endSize=6;strokeColor=#d6b656;targetPerimeterSpacing=6;sourcePerimeterSpacing=6;comic=0;startArrow=diamond;startFill=0;fillColor=#fff2cc;exitX=1;exitY=0.5;exitDx=0;exitDy=0;endArrow=diamond;endFill=0;elbow=vertical;curved=1;" parent="1" source="wKbyVIzsQiCnR4fuRm6c-44" target="wKbyVIzsQiCnR4fuRm6c-7" edge="1">
          <mxGeometry relative="1" as="geometry">
            <mxPoint x="560" y="770" as="sourcePoint"/>
            <mxPoint x="700" y="865" as="targetPoint"/>
            <Array as="points">
              <mxPoint x="790" y="760"/>
              <mxPoint x="790" y="860"/>
              <mxPoint x="1030" y="860"/>
            </Array>
          </mxGeometry>
        </mxCell>
        <mxCell id="oGly3HQriLXUBdCXG-YW-2" value="&lt;font style=&quot;font-size: 26px&quot;&gt;分级诊疗&lt;/font&gt;" style="rounded=0;whiteSpace=wrap;html=1;" vertex="1" parent="1">
          <mxGeometry x="-80" y="620" width="1210" height="60" as="geometry"/>
        </mxCell>
        <mxCell id="oGly3HQriLXUBdCXG-YW-3" value="实体" style="rounded=1;whiteSpace=wrap;html=1;fillColor=#dae8fc;strokeColor=#6c8ebf;" vertex="1" parent="1">
          <mxGeometry x="-80" y="620" width="90" height="30" as="geometry"/>
        </mxCell>
        <mxCell id="oGly3HQriLXUBdCXG-YW-4" value="流程" style="shape=process;whiteSpace=wrap;html=1;backgroundOutline=1;fillColor=#d5e8d4;strokeColor=#82b366;" vertex="1" parent="1">
          <mxGeometry x="10" y="620" width="110" height="30" as="geometry"/>
        </mxCell>
        <mxCell id="oGly3HQriLXUBdCXG-YW-6" value="" style="endArrow=none;html=1;" edge="1" parent="1">
          <mxGeometry width="50" height="50" relative="1" as="geometry">
            <mxPoint x="180" y="320" as="sourcePoint"/>
            <mxPoint x="1110" y="320" as="targetPoint"/>
          </mxGeometry>
        </mxCell>
        <mxCell id="oGly3HQriLXUBdCXG-YW-7" value="" style="endArrow=none;html=1;" edge="1" parent="1">
          <mxGeometry width="50" height="50" relative="1" as="geometry">
            <mxPoint x="620" y="530" as="sourcePoint"/>
            <mxPoint x="620" y="10" as="targetPoint"/>
          </mxGeometry>
        </mxCell>
        <mxCell id="oGly3HQriLXUBdCXG-YW-8" value="" style="rounded=1;whiteSpace=wrap;html=1;" vertex="1" parent="1">
          <mxGeometry x="320" y="180" width="120" height="60" as="geometry"/>
        </mxCell>
      </root>
    </mxGraphModel>
  </diagram>
</mxfile>
